<svg width="424" height="424" viewBox="0 0 424 424" fill="none" xmlns="http://www.w3.org/2000/svg">
<rect width="424" height="424" rx="73.1034" fill="#295A38"/>
<path d="M76.2802 160.303H77.8074C78.3663 152.286 81.4778 144.658 86.6862 138.537C91.8946 132.415 98.9261 128.123 106.751 126.288C114.576 124.452 122.783 125.171 130.169 128.338C137.556 131.505 143.735 136.954 147.8 143.887C151.851 142.084 156.253 141.211 160.685 141.332C165.117 141.454 169.465 142.565 173.411 144.586C177.357 146.607 180.8 149.486 183.488 153.012C186.176 156.538 188.04 160.62 188.944 164.96C189.848 169.301 189.769 173.788 188.712 178.094C187.655 182.399 185.648 186.414 182.837 189.842C180.026 193.27 176.483 196.026 172.469 197.906C168.454 199.787 164.069 200.744 159.636 200.708H76.2802C73.623 200.708 70.9918 200.185 68.5369 199.168C66.0819 198.151 63.8513 196.661 61.9724 194.782C60.0934 192.903 58.603 190.672 57.5861 188.217C56.5693 185.763 56.0459 183.131 56.0459 180.474C56.0459 177.817 56.5693 175.186 57.5861 172.731C58.603 170.276 60.0934 168.045 61.9724 166.166C63.8513 164.287 66.0819 162.797 68.5369 161.78C70.9918 160.763 73.623 160.24 76.2802 160.24V160.303Z" fill="white"/>
<path d="M314.575 287.186H121.308C121.308 287.186 111.71 330.357 176.482 330.357H259.387C324.173 330.357 314.575 287.186 314.575 287.186Z" fill="white"/>
<path d="M343.75 125.11C343.114 125.11 344.28 125.11 343.75 125.237C341.629 81.6292 276.705 66.3156 256.004 105.003C201.643 84.4077 183.275 171.984 241.454 174.868H343.75C376.244 174.72 376.308 125.258 343.75 125.11Z" fill="white"/>
<path d="M186.295 269.125C184.48 269.123 182.722 268.489 181.323 267.334C179.923 266.178 178.969 264.572 178.623 262.79C178.278 261.009 178.562 259.162 179.427 257.567C180.293 255.971 181.686 254.727 183.368 254.045C222.521 238.731 258.663 211.795 265.281 164.475C265.426 163.17 266.042 161.962 267.015 161.079C267.987 160.197 269.249 159.7 270.562 159.682H297.456C298.28 159.68 299.092 159.871 299.829 160.239C300.566 160.608 301.206 161.143 301.699 161.803C302.197 162.446 302.538 163.198 302.692 163.998C302.847 164.797 302.812 165.622 302.589 166.405C297.266 186.003 289.524 214.595 286.258 226.705C284.589 232.888 285.214 239.465 288.018 245.222L294.19 257.948C294.768 259.142 295.033 260.464 294.961 261.788C294.889 263.113 294.482 264.398 293.779 265.523C293.075 266.648 292.098 267.576 290.939 268.221C289.779 268.866 288.475 269.206 287.148 269.21L186.295 269.125Z" fill="white"/>
<rect x="153.179" y="319.562" width="129.514" height="21.5856" fill="white"/>
<path d="M139.249 167.895L178.487 207.134" stroke="white" stroke-width="25.452" stroke-linecap="round" stroke-linejoin="round"/>
</svg>
